<svg width="24" height="24" viewBox="0 0 24 24" fill="none" xmlns="http://www.w3.org/2000/svg">
<g clip-path="url(#clip0_1_729)">
<path d="M24 24.0001V15.2001C24 10.9001 23.1 7.6001 18 7.6001C15.6 7.6001 14 8.9001 13.3 10.2001H13.2V8.0001H8.5V24.0001H13.5V16.1001C13.5 14.0001 13.9 12.0001 16.5 12.0001C19 12.0001 19.1 14.4001 19.1 16.2001V24.0001H24Z" fill="#2D3779"/>
<path d="M0.400024 8H5.40002V24H0.400024V8Z" fill="#2D3779"/>
<path d="M2.9 0C1.3 0 0 1.3 0 2.9C0 4.5 1.3 5.8 2.9 5.8C4.5 5.8 5.8 4.5 5.8 2.9C5.8 1.3 4.5 0 2.9 0Z" fill="#2D3779"/>
</g>
<defs>
<clipPath id="clip0_1_729">
<rect width="24" height="24" fill="white"/>
</clipPath>
</defs>
</svg>
