<svg width="23" height="24" viewBox="0 0 23 24" fill="none" xmlns="http://www.w3.org/2000/svg">
<path d="M19.8362 13.4182C19.8913 13.0331 19.9463 12.6479 19.9463 12.2077C19.9463 11.7675 19.8913 11.3823 19.8362 10.9972L22.3123 9.23641C22.5324 9.07134 22.6425 8.7412 22.4774 8.46608L20.0563 4.39431C19.8913 4.11919 19.6161 4.00914 19.341 4.17421L16.5898 5.43976C15.9295 4.94454 15.2693 4.55938 14.4989 4.22923L14.2238 1.20292C14.1688 0.927798 13.9487 0.707703 13.6736 0.707703H8.9415C8.66638 0.707703 8.39126 0.927798 8.39126 1.20292L8.11615 4.22923C7.34581 4.55938 6.6305 4.94454 6.02524 5.43976L3.27404 4.17421C2.99892 4.06416 2.66878 4.17421 2.55873 4.39431L0.192701 8.46608C0.0276289 8.7412 0.137677 9.07134 0.357772 9.23641L2.83385 10.9972C2.77882 11.3823 2.7238 11.7675 2.7238 12.2077C2.7238 12.6479 2.77882 13.0331 2.83385 13.4182L0.247725 15.179C0.0276289 15.3441 -0.0824189 15.6742 0.0826528 15.9493L2.44868 20.0211C2.61375 20.2962 2.88887 20.4063 3.16399 20.2412L5.91519 18.9756C6.57548 19.4709 7.23576 19.856 8.0061 20.1862L8.28122 23.2125C8.33624 23.4876 8.55634 23.7077 8.83146 23.7077H13.5635C13.8386 23.7077 14.1138 23.4876 14.1138 23.2125L14.3889 20.1862C15.1592 19.856 15.8745 19.4709 16.4798 18.9756L19.231 20.2412C19.5061 20.3512 19.8362 20.2412 19.9463 20.0211L22.3123 15.9493C22.4774 15.6742 22.3673 15.3441 22.1472 15.179L19.8362 13.4182ZM11.2525 17.7101C8.22619 17.7101 5.75012 15.234 5.75012 12.2077C5.75012 9.18139 8.22619 6.70531 11.2525 6.70531C14.2788 6.70531 16.7549 9.18139 16.7549 12.2077C16.7549 15.234 14.2788 17.7101 11.2525 17.7101Z" fill="black"/>
<path d="M11.2525 5.60486C7.62089 5.60486 4.6496 8.57615 4.6496 12.2077C4.6496 15.8393 7.62089 18.8106 11.2525 18.8106C14.884 18.8106 17.8553 15.8393 17.8553 12.2077C17.8553 8.57615 14.884 5.60486 11.2525 5.60486ZM11.2525 14.9589C9.7118 14.9589 8.50127 13.7484 8.50127 12.2077C8.50127 10.6671 9.7118 9.45653 11.2525 9.45653C12.7931 9.45653 14.0037 10.6671 14.0037 12.2077C14.0037 13.7484 12.7931 14.9589 11.2525 14.9589Z" fill="#7C7C7C"/>
</svg>
