<svg width="24" height="16" viewBox="0 0 24 16" fill="none" xmlns="http://www.w3.org/2000/svg">
<g clip-path="url(#clip0_1_735)">
<path fill-rule="evenodd" clip-rule="evenodd" d="M22.98 1.54172C22.335 0.42172 21.615 0.218084 20.19 0.0871744C18.765 -0.0437347 15.135 -9.82285e-05 12 -9.82285e-05C8.865 -9.82285e-05 5.25 -9.83579e-05 3.81 0.130811C2.37 0.26172 1.665 0.42172 1.02 1.58536C0.375 2.74899 0 4.59627 0 7.9999C0 11.3744 0.345 13.3235 1.02 14.429C1.695 15.5344 2.385 15.7672 3.81 15.8835C5.235 15.9999 8.865 15.9999 12 15.9999C15.135 15.9999 18.75 15.9999 20.19 15.869C21.63 15.7381 22.335 15.5781 22.98 14.4144C23.625 13.2508 24 11.3599 24 7.98536C24 4.59627 23.655 2.66172 22.98 1.54172ZM9 12.3635V3.63627L16.5 7.9999L9 12.3635Z" fill="#2D3779"/>
</g>
<defs>
<clipPath id="clip0_1_735">
<rect width="24" height="16" fill="white"/>
</clipPath>
</defs>
</svg>
